<svg width="43" height="36" viewBox="0 0 43 36" fill="none" xmlns="http://www.w3.org/2000/svg">
<path d="M9.47461 35.2881C6.57422 35.2881 4.25391 34.2246 2.51367 32.0977C0.837891 29.9062 0 27.3281 0 24.3633C0 21.9141 0.451172 19.626 1.35352 17.499C2.25586 15.3721 3.38379 13.4385 4.7373 11.6982C6.15527 9.95801 7.6377 8.44336 9.18457 7.1543C10.7959 5.80078 12.2783 4.67285 13.6318 3.77051C14.9854 2.80371 16.0811 2.09473 16.9189 1.64355C17.8213 1.19238 18.2402 0.966797 18.1758 0.966797L20.3994 3.96387C19.8193 4.22168 19.0459 4.7373 18.0791 5.51074C17.1123 6.21973 16.1455 7.08984 15.1787 8.12109C14.2764 9.15234 13.4707 10.2803 12.7617 11.5049C12.0527 12.665 11.6982 13.793 11.6982 14.8887C11.6982 15.5332 12.085 16.1777 12.8584 16.8223C13.6318 17.4023 14.4697 18.1113 15.3721 18.9492C16.2744 19.7227 17.1123 20.6895 17.8857 21.8496C18.6592 22.9453 19.0459 24.2988 19.0459 25.9102C19.0459 27.3281 18.7559 28.6172 18.1758 29.7773C17.6602 30.9375 16.9512 31.9365 16.0488 32.7744C15.2109 33.5479 14.2119 34.1602 13.0518 34.6113C11.8916 35.0625 10.6992 35.2881 9.47461 35.2881ZM33.2578 35.4814C31.7754 35.4814 30.4219 35.1592 29.1973 34.5146C27.9727 33.8701 26.9092 33 26.0068 31.9043C25.1045 30.8086 24.3955 29.5518 23.8799 28.1338C23.4287 26.6514 23.2031 25.0723 23.2031 23.3965C23.2031 20.0449 23.9121 16.9512 25.3301 14.1152C26.8125 11.2148 28.4238 8.7334 30.1641 6.6709C32.2266 4.22168 34.5791 1.99805 37.2217 0L40.0254 2.61035C39.4453 2.99707 38.7363 3.60938 37.8984 4.44727C37.125 5.28516 36.3838 6.28418 35.6748 7.44434C35.0303 8.54004 34.4502 9.7002 33.9346 10.9248C33.4834 12.1494 33.2578 13.3418 33.2578 14.502C33.2578 15.2754 33.7412 15.9199 34.708 16.4355C35.6748 16.9512 36.7383 17.5957 37.8984 18.3691C39.0586 19.1426 40.1221 20.1416 41.0889 21.3662C42.0557 22.5264 42.5391 24.1699 42.5391 26.2969C42.5391 27.5859 42.2812 28.7783 41.7656 29.874C41.25 30.9697 40.541 31.9365 39.6387 32.7744C38.8008 33.6123 37.8018 34.2891 36.6416 34.8047C35.5459 35.2559 34.418 35.4814 33.2578 35.4814Z" fill="white"/>
</svg>
