<svg width="27" height="25" viewBox="0 0 27 25" fill="none" xmlns="http://www.w3.org/2000/svg">
<path fill-rule="evenodd" clip-rule="evenodd" d="M11 22C15.4183 22 19 18.4183 19 14C19 9.58172 15.4183 6 11 6C6.58172 6 3 9.58172 3 14C3 18.4183 6.58172 22 11 22ZM11 25C17.0751 25 22 20.0751 22 14C22 7.92487 17.0751 3 11 3C4.92487 3 0 7.92487 0 14C0 20.0751 4.92487 25 11 25Z" fill="#FF5600"/>
<path fill-rule="evenodd" clip-rule="evenodd" d="M24.1213 5.12132L11.5607 17.682L6 12.1213L8.12132 10L11.5607 13.4393L22 3L24.1213 5.12132Z" fill="#FF5600"/>
<path fill-rule="evenodd" clip-rule="evenodd" d="M26.9498 5.12138L11.5607 20.5105L3.17163 12.1214L8.12138 7.17163L11.5607 10.611L22.0001 0.171631L26.9498 5.12138ZM11.5607 13.4394L8.12138 10.0001L6.00006 12.1214L11.5607 17.682L24.1214 5.12138L22.0001 3.00006L11.5607 13.4394Z" fill="black"/>
</svg>
